<svg xmlns="http://www.w3.org/2000/svg" viewBox="0 0 349.85 70.19"><defs><style>.cls-1{fill:currentColor;}</style></defs><g id="Layer_2" data-name="Layer 2"><g id="Layer_1-2" data-name="Layer 1"><path class="cls-1" d="M57.85,57l1.07-.62a9.48,9.48,0,0,0,4.73-8.2h0a1.59,1.59,0,0,0-.79-1.38L22.69,23.52a3,3,0,0,1-1.18-4.08,3,3,0,0,1,1-1.06l5.57-3.8a7.1,7.1,0,0,1,7.55-.3L60.53,28.54a2.09,2.09,0,0,0,2.84-.76,2,2,0,0,0,.28-1.05V22.38a9.47,9.47,0,0,0-4.73-8.2L36.56,1.27a9.46,9.46,0,0,0-9.46,0L4.74,14.18A9.47,9.47,0,0,0,0,22.38v5.7a5.83,5.83,0,0,0,2.9,5L44.31,57A13.53,13.53,0,0,0,57.85,57Z"/><path class="cls-1" d="M0,46.79H0a11.89,11.89,0,0,0,6,10.3L25.93,68.6a11.91,11.91,0,0,0,11.89,0h0a3.65,3.65,0,0,0,0-6.31L5.47,43.64A3.65,3.65,0,0,0,.49,45,3.7,3.7,0,0,0,0,46.79Z"/><path class="cls-1" d="M101.77,51.21a18.86,18.86,0,0,1-7.43-1.27,10.71,10.71,0,0,1-4.47-3.34,7.68,7.68,0,0,1-1.61-4.38.88.88,0,0,1,.29-.65.91.91,0,0,1,.69-.29h5.64a1.66,1.66,0,0,1,1,.22,2.24,2.24,0,0,1,.61.58,5.25,5.25,0,0,0,1,1.3,5,5,0,0,0,1.7,1,8,8,0,0,0,2.62.38,7.7,7.7,0,0,0,3.92-.81,2.48,2.48,0,0,0,1.32-2.19,2.12,2.12,0,0,0-.72-1.64A6.25,6.25,0,0,0,104,39a38.42,38.42,0,0,0-4.23-1.05A26.69,26.69,0,0,1,94,36.05a9,9,0,0,1-3.65-3,8.83,8.83,0,0,1,.29-9.51A10.19,10.19,0,0,1,95,20.18a18.69,18.69,0,0,1,12-.4,12.2,12.2,0,0,1,4,2.15,10.08,10.08,0,0,1,2.44,2.84,6.44,6.44,0,0,1,.87,2.93,1,1,0,0,1-.26.65.87.87,0,0,1-.68.29h-5.9a1.91,1.91,0,0,1-.85-.18,1.53,1.53,0,0,1-.63-.58,3.08,3.08,0,0,0-1.41-1.72,5.36,5.36,0,0,0-3-.74,5.74,5.74,0,0,0-3.06.69,2.35,2.35,0,0,0-1.1,2.13A2.25,2.25,0,0,0,98,29.81,4.86,4.86,0,0,0,100,31a36.62,36.62,0,0,0,3.87,1,29,29,0,0,1,6.58,1.9,8.27,8.27,0,0,1,3.67,3,8.22,8.22,0,0,1,1.16,4.54,8.33,8.33,0,0,1-1.72,5.26,10.86,10.86,0,0,1-4.77,3.38A19.7,19.7,0,0,1,101.77,51.21Z"/><path class="cls-1" d="M134.76,51.21a17.9,17.9,0,0,1-7.16-1.3,10.53,10.53,0,0,1-4.75-4A13.83,13.83,0,0,1,121,39.13V31.38a13.82,13.82,0,0,1,1.9-6.78,10.72,10.72,0,0,1,4.77-4.14,19,19,0,0,1,14.21,0,10.87,10.87,0,0,1,4.81,4.14,13.17,13.17,0,0,1,1.88,6.78c.06,1.32.09,2.61.09,3.9s0,2.56-.09,3.85a13.62,13.62,0,0,1-1.88,6.78,10.51,10.51,0,0,1-4.74,4A17.9,17.9,0,0,1,134.76,51.21Zm0-6.44a5.43,5.43,0,0,0,3.87-1.44,6.31,6.31,0,0,0,1.59-4.56q.09-2,.09-3.72c0-1.16,0-2.37-.09-3.62a8.13,8.13,0,0,0-.79-3.43,4.45,4.45,0,0,0-1.9-1.94,5.8,5.8,0,0,0-2.77-.63,5.74,5.74,0,0,0-2.73.63A4.57,4.57,0,0,0,130.1,28a8,8,0,0,0-.8,3.43c0,1.25-.05,2.46-.05,3.62s0,2.41.05,3.72a6.52,6.52,0,0,0,1.61,4.56A5.28,5.28,0,0,0,134.76,44.77Z"/><path class="cls-1" d="M163.58,50.76a1.08,1.08,0,0,1-.8-.31,1.12,1.12,0,0,1-.32-.81V26.46h-8a1,1,0,0,1-.81-.34,1.13,1.13,0,0,1-.31-.78V20.55a1.08,1.08,0,0,1,1.12-1.12h24.08a1.08,1.08,0,0,1,1.11,1.12v4.79a1.13,1.13,0,0,1-.31.78,1,1,0,0,1-.8.34h-8V49.64a1.12,1.12,0,0,1-.32.81,1.08,1.08,0,0,1-.8.31Z"/><path class="cls-1" d="M181,50.76a1,1,0,0,1-.94-.94,1.34,1.34,0,0,1,0-.4l10.52-28.73a1.83,1.83,0,0,1,.56-.88,1.68,1.68,0,0,1,1.18-.38H199a1.72,1.72,0,0,1,1.19.38,1.89,1.89,0,0,1,.55.88l10.48,28.73a.9.9,0,0,1-.2,1,1,1,0,0,1-.7.29h-5.5a1.41,1.41,0,0,1-1-.33,1.71,1.71,0,0,1-.42-.61l-1.75-4.56H189.72L188,49.82a2,2,0,0,1-.4.61,1.46,1.46,0,0,1-1.08.33Zm10.51-12h8.33L195.63,27Z"/><path class="cls-1" d="M228.88,50.76a1.08,1.08,0,0,1-.8-.31,1.12,1.12,0,0,1-.32-.81V20.55a1.09,1.09,0,0,1,1.06-1.12h6a1.1,1.1,0,0,1,.78.32,1,1,0,0,1,.34.8V44h13.52a1.16,1.16,0,0,1,1.16,1.17v4.47a1,1,0,0,1-.34.81,1.18,1.18,0,0,1-.82.31Z"/><path class="cls-1" d="M254.93,50.76a.89.89,0,0,1-.65-.29.91.91,0,0,1-.29-.65,1.34,1.34,0,0,1,0-.4l10.52-28.73a1.83,1.83,0,0,1,.56-.88,1.72,1.72,0,0,1,1.19-.38h6.62a1.72,1.72,0,0,1,1.19.38,1.83,1.83,0,0,1,.56.88L285.1,49.42a.9.9,0,0,1-.2,1,.94.94,0,0,1-.69.29H278.7a1.46,1.46,0,0,1-1-.33,1.85,1.85,0,0,1-.42-.61l-1.75-4.56H263.61l-1.7,4.56a1.9,1.9,0,0,1-.4.61,1.43,1.43,0,0,1-1.07.33Zm10.52-12h8.32L269.57,27Z"/><path class="cls-1" d="M292.12,50.76a1.08,1.08,0,0,1-.8-.31,1.12,1.12,0,0,1-.32-.81V20.55a1.09,1.09,0,0,1,1.06-1.12h13.71a15.67,15.67,0,0,1,6.31,1.08,7.58,7.58,0,0,1,3.65,3.06,9.1,9.1,0,0,1,1.19,4.73,6.35,6.35,0,0,1-.61,2.84,7,7,0,0,1-3.11,3.2,8,8,0,0,1,3,2.64,7.17,7.17,0,0,1,1.32,4.3,9.52,9.52,0,0,1-1.32,5.07,8.63,8.63,0,0,1-3.85,3.27,15.14,15.14,0,0,1-6.2,1.14ZM299,31.91h5.86a3.74,3.74,0,0,0,2.75-.94,3.35,3.35,0,0,0,.92-2.42,3.16,3.16,0,0,0-.92-2.35,3.71,3.71,0,0,0-2.75-.92H299Zm0,13h6.26a3.73,3.73,0,0,0,2.91-1.12,3.91,3.91,0,0,0,0-5.2,3.79,3.79,0,0,0-2.89-1.07H299Z"/><path class="cls-1" d="M336.43,51.21a18.86,18.86,0,0,1-7.43-1.3,10.71,10.71,0,0,1-4.47-3.34,7.68,7.68,0,0,1-1.61-4.38.88.88,0,0,1,.29-.65.91.91,0,0,1,.69-.29h5.64a1.66,1.66,0,0,1,1,.22,2.24,2.24,0,0,1,.61.58,5.25,5.25,0,0,0,1,1.3,4.72,4.72,0,0,0,1.7,1,8,8,0,0,0,2.62.38,7.7,7.7,0,0,0,3.92-.81,2.48,2.48,0,0,0,1.32-2.19,2.12,2.12,0,0,0-.72-1.64,6.25,6.25,0,0,0-2.3-1.16,38.42,38.42,0,0,0-4.23-1,26.69,26.69,0,0,1-5.8-1.86A9,9,0,0,1,325,33a8.81,8.81,0,0,1,.3-9.51,10,10,0,0,1,4.31-3.36,18.69,18.69,0,0,1,12-.4,12.2,12.2,0,0,1,4,2.15,10.08,10.08,0,0,1,2.44,2.84,6.58,6.58,0,0,1,.88,2.93,1,1,0,0,1-.27.65.88.88,0,0,1-.67.29h-6a2.09,2.09,0,0,1-.85-.18,1.53,1.53,0,0,1-.63-.58,3.08,3.08,0,0,0-1.41-1.72,5.36,5.36,0,0,0-3-.74,5.74,5.74,0,0,0-3.06.69,2.35,2.35,0,0,0-1.1,2.13,2.25,2.25,0,0,0,.61,1.57,4.86,4.86,0,0,0,2,1.16,36.62,36.62,0,0,0,3.87,1,29,29,0,0,1,6.58,1.9,8.27,8.27,0,0,1,3.67,3,8.22,8.22,0,0,1,1.16,4.54,8.33,8.33,0,0,1-1.72,5.26A10.86,10.86,0,0,1,343.35,50,19.68,19.68,0,0,1,336.43,51.21Z"/></g></g></svg>